Coordinates
version=1
nRows=15
nColumns=32
inDegrees=yes

Units are S.I. units (second, meters, Newtons, ...)
Angles are in degrees.
endheader
time	lower_torso_RX	lower_torso_RY	lower_torso_RZ	lower_torso_TX	lower_torso_TY	lower_torso_TZ	lumbar_pitch	lumbar_roll	lumbar_yaw	hip_flex_r	hip_add_r	hip_rot_r	knee_flex_r	tib_pat_r_r3	tib_pat_r_tx	tib_pat_r_ty	tib_pat_r_tz	ankle_flex_r	subt_angle_r	toe_angle_r	hip_flex_l	hip_add_l	hip_rot_l	knee_flex_l	tib_pat_l_r3	tib_pat_l_tx	tib_pat_l_ty	tib_pat_l_tz	ankle_flex_l	subt_angle_l	toe_angle_l
3.31999999999999980000	1.21806836000000000000	10.14983982999999900000	-11.00282721000000000000	-0.54025873999999996000	0.67802859999999998000	-0.23180474000000001000	5.78490152000000000000	-0.09855998000000000500	-8.27342376000000000000	40.89690104999999700000	-3.39213267000000010000	13.58317407000000000000	30.63361181000000100000	8.93513500397519780000	0.04116281109617420800	-0.01965204110255286400	0.00219691669626343640	-10.55790165000000000000	-2.76202424000000010000	0.00000000000000000000	0.83541642000000005000	-0.27283449999999998000	27.46769449000000000000	20.93810115999999900000	6.27169261664422080000	0.04186594287522114900	-0.01958095843204477700	-0.00214957326773124700	12.48787901999999900000	6.29169272000000030000	0.00000000000000000000
3.33000000000000010000	2.26823680999999990000	10.37800955000000000000	-11.51149910000000000000	-0.53104512999999998000	0.67584955999999996000	-0.23061933000000001000	6.22233157999999960000	-2.28058444000000020000	-10.66509703999999900000	41.25911491000000100000	-3.98169058000000000000	13.98598217000000000000	32.72816774999999700000	9.44477386459808700000	0.04077887476515133100	-0.01957496740079941700	0.00219691669626343640	-4.47109218000000030000	-1.69008070999999990000	0.00000000000000000000	0.51939851999999997000	0.30849897999999998000	27.38771961999999900000	20.81325319000000100000	6.23394527764581690000	0.04188475772257899100	-0.01958547567450919000	-0.00214957326773124700	12.60442343000000100000	7.81519825999999980000	0.00000000000000000000
3.33999999999999990000	2.91659449000000000000	10.75247362000000000000	-11.84326003000000000000	-0.52198082999999995000	0.67379926000000001000	-0.22951827999999999000	6.72775848000000030000	-3.38747424000000000000	-11.75855868999999900000	41.23112625000000300000	-4.16359290000000030000	14.24125790000000100000	34.58784604000000200000	9.87896078388116020000	0.04042868256738821300	-0.01950715357998211700	0.00219691669626343640	-0.43041280999999998000	-2.07630340000000000000	0.00000000000000000000	0.33907859000000001000	0.64762987999999999000	27.74601669000000100000	21.37605483999999800000	6.40338363109313050000	0.04179959784368487300	-0.01956509939194380300	-0.00214957326773124700	12.63673502000000000000	8.78702093999999970000	0.00000000000000000000
3.35000000000000010000	3.24533715000000010000	11.23794116999999900000	-12.05258502999999900000	-0.51295670000000004000	0.67178605000000002000	-0.22851381000000001000	7.27759188000000010000	-3.64596082999999990000	-11.81594285000000100000	40.94288664999999800000	-4.00401650999999960000	14.40606189000000000000	36.17185782000000000000	10.23559459779861500000	0.04012363590419028300	-0.01944996940765499800	0.00219691669626343640	2.05933959999999990000	-3.49234053999999980000	0.00000000000000000000	0.29791933999999998000	0.80470355000000005000	28.42973645000000000000	22.49991273999999900000	6.73621445547263150000	0.04162690628131580900	-0.01952432133157134100	-0.00214957326773124700	12.58143991999999900000	9.32369865000000080000	0.00000000000000000000
3.35999999999999990000	3.32516027000000000000	11.77567207000000100000	-12.18968491999999900000	-0.50388409999999995000	0.66980744000000003000	-0.22765413000000001000	7.84295077999999980000	-3.31449003000000000000	-11.15596141000000000000	40.53653059999999900000	-3.58432114000000010000	14.52292751000000100000	37.45466416000000000000	10.51574058383706100000	0.03987211543549509800	-0.01940411710553205700	0.00219691669626343640	3.53364640999999980000	-5.41154931999999980000	0.00000000000000000000	0.39639373000000000000	0.83229469000000000000	29.29044805999999900000	24.03757789999999900000	7.17984380111241640000	0.04138499858196845900	-0.01946838834719744400	-0.00214957326773124700	12.41320091000000000000	9.56274739000000020000	0.00000000000000000000
3.37000000000000010000	3.18819481000000020000	12.28455746999999900000	-12.29107076999999900000	-0.49482530000000002000	0.66798299000000005000	-0.22690495999999999000	8.39558367000000060000	-2.62244528000000000000	-10.09074685999999900000	40.11403393999999900000	-2.98489072000000010000	14.59397294000000000000	38.44904181999999800000	10.72766930659718700000	0.03967442997048285800	-0.01936889101536282500	0.00219691669626343640	4.43597061000000000000	-7.32937062999999970000	0.00000000000000000000	0.63246636000000001000	0.75551126999999996000	30.16602000000000000000	25.84882912000000100000	7.68533424579968120000	0.04109182833462537300	-0.01940240072603592600	-0.00214957326773124700	12.07860904000000000000	9.63647345000000040000	0.00000000000000000000
3.37999999999999990000	2.83649342000000000000	12.67700527000000000000	-12.37629165000000100000	-0.48593231999999997000	0.66650602999999997000	-0.22609387000000000000	8.91180909000000020000	-1.73862155999999990000	-8.88605659999999990000	39.71561355000000000000	-2.26627863000000000000	14.57881803000000100000	39.19438368000000100000	10.88357748142271000000	0.03952471583597284100	-0.01934268395765180800	0.00219691669626343640	5.07163619000000040000	-8.85271136000000070000	0.00000000000000000000	1.00021022000000000000	0.57218634999999995000	30.89717801000000100000	27.81108877000000100000	8.21263045677375910000	0.04076435901828597700	-0.01933093837933398000	-0.00214957326773124700	11.50123518999999900000	9.66076409999999970000	0.00000000000000000000
3.39000000000000010000	2.27369762000000010000	12.88697351000000100000	-12.44494430000000000000	-0.47729360999999998000	0.66557805999999997000	-0.22508389000000001000	9.37471825999999990000	-0.76467116000000002000	-7.74115716000000020000	39.33196981999999800000	-1.45262255000000010000	14.41588707999999900000	39.72000942999999800000	10.99202851846923000000	0.03941835008038290000	-0.01932430978859181100	0.00219691669626343640	5.61899309000000000000	-9.74894040000000040000	0.00000000000000000000	1.48437815999999990000	0.26575088000000002000	31.34370925000000000000	29.82222000999999900000	8.73169890235097410000	0.04041830756046128200	-0.01925790428601358400	-0.00214957326773124700	10.59629316999999900000	9.73487330999999930000	0.00000000000000000000
3.39999999999999990000	1.52501499000000010000	12.89055678000000100000	-12.48199217000000000000	-0.46891519999999998000	0.66532084999999996000	-0.22392728000000001000	9.77502606999999910000	0.25323101999999997000	-6.78407067000000020000	38.92440161999999800000	-0.53706458999999995000	14.05811512999999900000	40.02102671000000100000	11.05358379974818600000	0.03935714550550601500	-0.01931382876387821900	0.00219691669626343640	6.16205216999999990000	-9.95216609000000040000	0.00000000000000000000	2.05902323000000020000	-0.18162236000000001000	31.40517230000000000000	31.80265414000000100000	9.22231291605259610000	0.04006743892854161500	-0.01918637318158750500	-0.00214957326773124700	9.29182504999999990000	9.94657757000000050000	0.00000000000000000000
3.41000000000000010000	0.62905387000000001000	12.70693630000000100000	-12.46984638000000000000	-0.46075431999999999000	0.66570786999999998000	-0.22273272000000000000	10.11093676000000000000	1.30269649999999990000	-6.07761785000000020000	38.43920796999999800000	0.48677013000000002000	13.50753913000000000000	40.06624267000000100000	11.06279544117505700000	0.03934793371339725300	-0.01931225707109027500	0.00219691669626343640	6.72254403999999980000	-9.53521856999999960000	0.00000000000000000000	2.69412763000000010000	-0.78273647000000002000	31.04351200000000000000	33.69938841999999800000	9.67364282241685740000	0.03972220179374840600	-0.01911839418951570900	-0.00214957326773124700	7.55215311999999980000	10.37709525000000000000	0.00000000000000000000
3.41999999999999990000	-0.37644438000000002000	12.38434728000000000000	-12.39913054000000000000	-0.45271151999999998000	0.66661086000000003000	-0.22147826000000001000	10.38727191000000100000	2.38158287999999980000	-5.63190259000000020000	37.82111134000000200000	1.59573308000000000000	12.82932143999999900000	39.82626659000000300000	11.01380294876210700000	0.03939676937072986900	-0.01932060654608772400	0.00219691669626343640	7.28641385999999970000	-8.66286170000000060000	0.00000000000000000000	3.36495210000000000000	-1.54270097000000010000	30.29660548000000000000	35.48996388999999900000	10.08353501125932200000	0.03938820075072119200	-0.01905483985036352300	-0.00214957326773124700	5.39837915000000020000	11.10145039000000000000	0.00000000000000000000
3.43000000000000020000	-1.45156223999999990000	11.98146430000000100000	-12.27396225999999900000	-0.44467695000000002000	0.66786049999999997000	-0.22006369000000001000	10.61400712000000000000	3.47926202000000020000	-5.41950574999999990000	37.02887215999999900000	2.73835945999999990000	12.13440932000000000000	39.30055641999999900000	10.90558318998953000000	0.03950328286144577600	-0.01933896519214552100	0.00219691669626343640	7.82678389999999970000	-7.54181844000000010000	0.00000000000000000000	4.05912764999999980000	-2.45197901000000010000	29.27226909000000200000	37.18315801000000000000	10.45708608976818400000	0.03906528477333556800	-0.01899541878227779100	-0.00214957326773124700	2.92036696000000000000	12.18167208999999900000	0.00000000000000000000
3.43999999999999990000	-2.54077324000000000000	11.55222765000000100000	-12.11206514999999900000	-0.43662173999999998000	0.66925906000000002000	-0.21845095000000000000	10.80435328000000100000	4.56671320999999960000	-5.39054068999999990000	36.05063189999999900000	3.85942953999999980000	11.54001026000000100000	38.53013138000000000000	10.74475292358313900000	0.03965820541141018600	-0.01936603140776917500	0.00219691669626343640	8.32330331000000000000	-6.37826097000000040000	0.00000000000000000000	4.77923289000000030000	-3.47477282000000010000	28.12062745000000100000	38.81557738000000100000	10.80465288028497600000	0.03874757046590190900	-0.01893886109758136800	-0.00214957326773124700	0.27556446000000001000	13.65271777000000100000	0.00000000000000000000
3.45000000000000020000	-3.57028050999999990000	11.13801385999999900000	-11.93996673000000000000	-0.42856518999999998000	0.67063041000000001000	-0.21665701000000001000	10.97259196000000100000	5.59641102999999960000	-5.48568349000000040000	34.91430881000000100000	4.92024731999999960000	11.13019830000000000000	37.59343604000000000000	10.54558863847880400000	0.03984466883901190800	-0.01939918380082741200	0.00219691669626343640	8.77413149000000030000	-5.34689840999999970000	0.00000000000000000000	5.54177436999999970000	-4.54131325000000000000	26.99282489999999900000	40.44382711000000100000	11.13936754804512900000	0.03842453978478607700	-0.01888326376556412700	-0.00214957326773124700	-2.32746865000000010000	15.50472989000000000000	0.00000000000000000000
3.46000000000000000000	-4.46294322999999960000	10.76547348000000100000	-11.78510249000000000000	-0.42051211999999999000	0.67186394999999999000	-0.21470350999999999000	11.13194957000000000000	6.51028886000000020000	-5.64617739000000010000	33.68651126999999700000	5.89878214999999970000	10.93509305000000100000	36.59088479999999800000	10.32794824457546000000	0.04004191456831041700	-0.01943494385697066100	0.00219691669626343640	9.19712518999999950000	-4.57112240000000010000	0.00000000000000000000	6.37525999999999990000	-5.55335958000000040000	26.00075770999999800000	42.13150867000000200000	11.47404071361271800000	0.03808340295237070500	-0.01882655208804445400	-0.00214957326773124700	-4.65969895000000010000	17.66872876000000000000	0.00000000000000000000
